<svg width="28" height="28" viewBox="0 0 28 28" fill="none" xmlns="http://www.w3.org/2000/svg">
<path fill-rule="evenodd" clip-rule="evenodd" d="M12.6666 2.33337C12.6666 1.91916 13.0024 1.58337 13.4166 1.58337C19.9558 1.58337 25.2499 6.87749 25.2499 13.4167C25.2499 19.9559 19.9558 25.25 13.4166 25.25C6.87737 25.25 1.58325 19.9559 1.58325 13.4167C1.58325 8.80693 4.21323 4.821 8.06019 2.8664C8.42947 2.67877 8.88093 2.82603 9.06856 3.19531C9.25619 3.56459 9.10893 4.01605 8.73965 4.20368C5.37661 5.91241 3.08325 9.39315 3.08325 13.4167C3.08325 19.1275 7.7058 23.75 13.4166 23.75C19.1274 23.75 23.7499 19.1275 23.7499 13.4167C23.7499 7.70592 19.1274 3.08337 13.4166 3.08337C13.0024 3.08337 12.6666 2.74759 12.6666 2.33337Z" fill="white"/>
<path fill-rule="evenodd" clip-rule="evenodd" d="M22.8029 22.803C23.0958 22.5102 23.5707 22.5102 23.8636 22.803L26.1969 25.1364C26.4898 25.4293 26.4898 25.9041 26.1969 26.197C25.904 26.4899 25.4291 26.4899 25.1363 26.197L22.8029 23.8637C22.51 23.5708 22.51 23.0959 22.8029 22.803Z" fill="white"/>
</svg>
