<svg width="16" height="16" viewBox="0 0 16 16" fill="none" xmlns="http://www.w3.org/2000/svg">
<path d="M0.5 4.17539H8.64103C8.86559 5.0827 9.68634 5.75748 10.6621 5.75748C11.6378 5.75748 12.4585 5.0827 12.6831 4.17539H15.5C15.7761 4.17539 16 3.95151 16 3.67539C16 3.39926 15.7761 3.17539 15.5 3.17539H12.6831C12.4585 2.26807 11.6378 1.59326 10.662 1.59326C9.68628 1.59326 8.86553 2.26807 8.641 3.17539H0.5C0.223875 3.17539 0 3.39926 0 3.67539C0 3.95151 0.223875 4.17539 0.5 4.17539ZM10.6621 2.59326C11.2587 2.59326 11.7442 3.0787 11.7442 3.67536C11.7442 4.27204 11.2587 4.75748 10.6621 4.75748C10.0654 4.75748 9.57994 4.27204 9.57994 3.67536C9.57994 3.0787 10.0654 2.59326 10.6621 2.59326ZM0.5 8.50001H3.31694C3.5415 9.40732 4.36222 10.0821 5.33797 10.0821C6.31372 10.0821 7.13444 9.40732 7.359 8.50001H15.5C15.7761 8.50001 16 8.27614 16 8.00001C16 7.72389 15.7761 7.50001 15.5 7.50001H7.35897C7.13441 6.5927 6.31369 5.91789 5.33794 5.91789C4.36219 5.91789 3.54147 6.5927 3.31691 7.50001H0.5C0.223875 7.50001 0 7.72389 0 8.00001C0 8.27614 0.223844 8.50001 0.5 8.50001ZM5.33794 6.91789C5.93462 6.91789 6.42006 7.40332 6.42006 8.00001C6.42006 8.59667 5.93462 9.08211 5.33794 9.08211C4.74125 9.08211 4.25581 8.59667 4.25581 8.00001C4.25581 7.40332 4.74125 6.91789 5.33794 6.91789ZM15.5 11.8246H12.6831C12.4585 10.9173 11.6378 10.2425 10.662 10.2425C9.68628 10.2425 8.86556 10.9173 8.641 11.8246H0.5C0.223875 11.8246 0 12.0485 0 12.3246C0 12.6008 0.223875 12.8246 0.5 12.8246H8.64103C8.86559 13.7319 9.68631 14.4068 10.6621 14.4068C11.6378 14.4068 12.4585 13.7319 12.6831 12.8246H15.5C15.7761 12.8246 16 12.6008 16 12.3246C16 12.0485 15.7762 11.8246 15.5 11.8246ZM10.6621 13.4068C10.0654 13.4068 9.57994 12.9213 9.57994 12.3246C9.57994 11.7279 10.0654 11.2425 10.6621 11.2425C11.2587 11.2425 11.7442 11.7279 11.7442 12.3246C11.7442 12.9213 11.2587 13.4068 10.6621 13.4068Z" fill="white"/>
</svg>
