<svg width="12" height="10" viewBox="0 0 12 10" fill="none" xmlns="http://www.w3.org/2000/svg">
<path d="M11.1828 1.90967C10.765 2.12016 10.3471 2.19033 9.85962 2.2605C10.3471 1.97983 10.6953 1.55884 10.8346 0.99751C10.4168 1.27817 9.92926 1.41851 9.37212 1.55884C8.95426 1.13784 8.32748 0.857178 7.70069 0.857178C6.51676 0.857178 5.47212 1.90967 5.47212 3.17265C5.47212 3.38315 5.47212 3.52348 5.54176 3.66382C3.66141 3.59365 1.92034 2.68149 0.806049 1.27817C0.597121 1.629 0.527478 1.97983 0.527478 2.47099C0.527478 3.24282 0.945335 3.94448 1.57212 4.36547C1.22391 4.36547 0.875692 4.22514 0.527478 4.08481C0.527478 5.20747 1.29355 6.11962 2.33819 6.33012C2.12926 6.40029 1.92034 6.40029 1.71141 6.40029C1.57212 6.40029 1.43284 6.40029 1.29355 6.33012C1.57212 7.24228 2.40784 7.94394 3.45248 7.94394C2.68641 8.57543 1.71141 8.92626 0.597121 8.92626C0.388192 8.92626 0.248907 8.92626 0.039978 8.92626C1.08462 9.55775 2.26855 9.97875 3.52212 9.97875C7.70069 9.97875 9.99891 6.47045 9.99891 3.45332C9.99891 3.38315 9.99891 3.24282 9.99891 3.17265C10.4864 2.82182 10.9043 2.40083 11.1828 1.90967Z" fill="white"/>
</svg>
